<?xml version="1.0" encoding="UTF-8"?>
<svg version="1.1" xmlns="http://www.w3.org/2000/svg" width="2048" height="1842">
<path d="M0 0 C675.84 0 1351.68 0 2048 0 C2048 607.86 2048 1215.72 2048 1842 C1372.16 1842 696.32 1842 0 1842 C0 1234.14 0 626.28 0 0 Z " fill="#000309" transform="translate(0,0)"/>
<path d="M0 0 C31.02 0 62.04 0 94 0 C94 108.24 94 216.48 94 328 C104.56386675 319.89175777 104.56386675 319.89175777 114.9375 311.5625 C119.91869335 307.48916156 124.9277641 303.4594014 130 299.5 C137.75448354 293.44101635 145.3766849 287.22266773 153 281 C162.36036313 273.35943564 171.75914936 265.77979151 181.28222656 258.34277344 C184.19271628 256.06766067 187.09594496 253.7833163 190 251.5 C191.16663279 250.58329022 192.33329944 249.66662352 193.5 248.75 C194.0775 248.29625 194.655 247.8425 195.25 247.375 C200.5 243.25 200.5 243.25 202.24951172 241.87548828 C203.41794152 240.95736646 204.58623548 240.03907174 205.75439453 239.12060547 C208.64300506 236.84977631 211.53379548 234.58185054 214.4296875 232.3203125 C220.61209547 227.48649004 226.73889566 222.5949869 232.8125 217.625 C239.0105823 212.55753211 245.31890648 207.6572131 251.6965332 202.81835938 C257.7874053 198.18865123 263.76303243 193.42567664 269.72265625 188.62890625 C272.27250739 186.57760917 274.84369105 184.55811482 277.4375 182.5625 C281.57933354 179.36270003 285.63179284 176.05763649 289.6875 172.75 C296.49502117 167.20027815 303.3683817 161.74347991 310.29101562 156.33837891 C312.00577474 154.99547756 313.71464141 153.6454209 315.421875 152.29296875 C322.29834499 146.85161357 329.25296772 141.53257281 336.28686523 136.29614258 C341.04286233 132.7465676 345.69089346 129.09529285 350.27734375 125.328125 C352 124 352 124 353 124 C353.16375563 139.37729533 353.28707518 154.75455036 353.3626852 170.13252258 C353.39873082 177.27337854 353.44784437 184.41369173 353.52807617 191.55419922 C353.59799957 197.78026008 353.64304328 204.00592776 353.65861946 210.23237038 C353.66772061 213.52742143 353.69270914 216.82109016 353.7401104 220.11584473 C353.79100862 223.80056126 353.7979198 227.48295664 353.79467773 231.16796875 C353.83242813 232.79393227 353.83242813 232.79393227 353.87094116 234.45274353 C353.80741452 241.13560642 352.60124106 244.62304424 347.82450962 249.36766052 C347.22242145 249.90633255 346.62033327 250.44500458 346 251 C345.41580009 251.54618484 344.83160017 252.09236969 344.22969723 252.65510559 C342.64901356 254.11175224 341.02489004 255.49739418 339.375 256.875 C338.47539551 257.63635254 338.47539551 257.63635254 337.55761719 258.41308594 C332.48969074 262.66780552 327.27552385 266.71720709 322.00390625 270.71484375 C316.31708913 275.04096601 310.77510771 279.54519672 305.24609375 284.0703125 C298.25871114 289.78314554 291.23870368 295.38912771 283.98828125 300.765625 C275.34105678 307.23126212 266.95766246 313.98314456 258.76074219 321.00854492 C254.2572338 324.84229726 249.57082881 328.38935881 244.8125 331.90234375 C242.26598463 333.80161979 239.78182325 335.75201717 237.3125 337.75 C232.8978054 341.31707323 228.39499184 344.75599186 223.875 348.1875 C217.42012536 353.09577525 211.08423565 358.12771826 204.81005859 363.2644043 C200.01922542 367.18423065 195.17297472 371.02441727 190.29272461 374.83203125 C185.77068323 378.37018411 181.31883308 381.9893279 176.875 385.625 C171.34996003 390.13950635 165.75017531 394.49611336 160.015625 398.7421875 C156.513739 401.36406588 153.06437263 404.04692333 149.625 406.75 C148.76817627 407.42216553 148.76817627 407.42216553 147.89404297 408.10791016 C146.25680662 409.39804281 144.62826449 410.69857332 143 412 C142.43506836 412.44021484 141.87013672 412.88042969 141.28808594 413.33398438 C137.84573127 416.06570906 137.84573127 416.06570906 136 420 C136.88921143 420.41620605 136.88921143 420.41620605 137.79638672 420.84082031 C139.86055207 421.92664538 141.47124137 423.06012916 143.2578125 424.546875 C143.87446777 425.05516846 144.49112305 425.56346191 145.12646484 426.0871582 C145.78598145 426.635896 146.44549805 427.18463379 147.125 427.75 C153.13833965 432.69785234 159.21625119 437.54683227 165.375 442.3125 C172.88649876 448.13123336 180.33950883 454.00937879 187.69921875 460.01953125 C194.96790352 465.95143634 202.27766758 471.79485412 209.73828125 477.484375 C213.28730291 480.20460903 216.76816187 483.00711769 220.25 485.8125 C225.55990026 490.08940453 230.9398642 494.25866104 236.375 498.375 C242.89959233 503.32346424 249.24674068 508.45055089 255.54101562 513.68774414 C261.48836545 518.62034453 267.56501819 523.37047741 273.68017578 528.0925293 C278.65461746 531.93800036 283.53689675 535.8686502 288.3828125 539.875 C291.27536576 542.22358056 294.2240144 544.49236197 297.1875 546.75 C302.20406394 550.57286122 307.11777193 554.50719715 312 558.5 C322.42032713 567.01204723 333.09240942 575.1194772 344 583 C345.54540521 584.11985885 347.08745573 585.24437242 348.625 586.375 C349.25664063 586.83648438 349.88828125 587.29796875 350.5390625 587.7734375 C352 589 352 589 353 591 C353.09270995 592.60920909 353.12192313 594.22226034 353.12025452 595.83413696 C353.12231651 597.36542992 353.12231651 597.36542992 353.12442017 598.92765808 C353.12082489 600.05190689 353.11722961 601.1761557 353.11352539 602.33447266 C353.11367142 603.51494675 353.11381744 604.69542084 353.1139679 605.91166687 C353.11338959 609.15319775 353.10836583 612.39468575 353.10139394 615.63620806 C353.09515306 619.02214911 353.09455602 622.40809095 353.09336853 625.79403687 C353.09025739 632.2078101 353.08204691 638.62156634 353.07201904 645.03533208 C353.06085119 652.33632547 353.05534576 659.63731965 353.05032361 666.93831944 C353.03986412 681.95888911 353.02226886 696.97944286 353 712 C348.61263551 710.37243674 345.53295508 708.14414891 342.0625 705.0625 C337.5251922 701.12778819 332.93078301 697.30904432 328.1875 693.625 C323.13071282 689.69170821 318.1432309 685.68481035 313.1875 681.625 C307.70455142 677.14058186 302.14463167 672.77893258 296.5 668.5 C290.16873571 663.70056319 283.96405559 658.7714505 277.81518555 653.7409668 C269.16672653 646.66904421 260.36192778 639.80170059 251.5 633 C241.66096224 625.44558234 231.92410871 617.79423863 222.375 609.875 C216.76739801 605.22864788 211.09171219 600.73534969 205.23046875 596.41015625 C192.88524286 587.26539742 180.84888696 577.65077853 169 567.875 C160.35481551 560.7861919 151.46958528 553.99735269 142.62255859 547.16357422 C134.21478711 540.66863596 125.85482105 534.15380961 117.734375 527.30078125 C114.95226322 524.95983291 112.1367637 522.66483811 109.3125 520.375 C105.03446101 516.89561084 100.9198067 513.27864444 96.875 509.53125 C94.97455039 507.79421323 94.97455039 507.79421323 92 507 C92.07068632 507.66493847 92.14137264 508.32987694 92.21420097 509.01496506 C92.88385932 515.7412046 93.14351788 522.37333543 93.12939453 529.12988281 C93.13202301 530.71082985 93.13202301 530.71082985 93.13470459 532.32371521 C93.13907772 535.78353563 93.13619686 539.24330412 93.1328125 542.703125 C93.13348784 545.14662689 93.13445978 547.59012871 93.13571167 550.03363037 C93.13718338 555.15768065 93.13505474 560.28171347 93.13037109 565.40576172 C93.12473471 571.87843888 93.12791703 578.351074 93.13394356 584.82374954 C93.13761566 589.87935686 93.13637966 594.93495478 93.13381577 599.99056244 C93.13316151 602.37085729 93.13392048 604.75115308 93.13629532 607.13144684 C93.14639326 620.1189706 92.97213931 633.07882753 92.50927734 646.05859375 C91.94032263 662.08057235 91.80050663 678.09139724 91.72960854 694.12220669 C91.71098771 698.06580605 91.68675618 702.00937092 91.66296387 705.95294189 C91.59377448 717.58460316 91.53334626 729.21630766 91.47393799 740.84802246 C91.42717962 749.97796252 91.37814815 759.10787893 91.32245111 768.23776937 C91.29421019 772.90928816 91.2705861 777.58080006 91.25052643 782.25236082 C91.23716233 785.1369165 91.21975625 788.02143728 91.20121574 790.9059639 C91.18974971 792.88151683 91.18319616 794.85709635 91.17677307 796.83267212 C91.16842941 798.00363434 91.16008575 799.17459656 91.15148926 800.38104248 C91.14633553 801.39991924 91.14118179 802.41879601 91.13587189 803.46854782 C91 806 91 806 90 809 C86.5093678 808.61215198 84.92215404 807.11654376 82.578125 804.6171875 C80.68270543 802.6748516 78.66503005 800.91509259 76.625 799.125 C72.03972394 795.03394531 67.69819499 790.74097243 63.375 786.375 C59.09334127 782.0511834 54.80833369 777.85603604 50.15234375 773.93359375 C46.97645801 771.08048406 44.00260701 768.03359002 41 765 C36.81465439 760.77575916 32.61871271 756.6594159 28.08984375 752.80078125 C19.81960108 745.67445999 11.98088238 738.07730721 4.25 730.375 C3.54617188 729.67576416 2.84234375 728.97652832 2.1171875 728.25610352 C1.46492188 727.60182373 0.81265625 726.94754395 0.140625 726.2734375 C-0.44170898 725.68997559 -1.02404297 725.10651367 -1.62402344 724.50537109 C-4.35994972 721.51216288 -4.12547891 719.16111858 -4.12656307 715.21321869 C-4.12929527 713.97162381 -4.13202747 712.73002892 -4.13484246 711.45080996 C-4.13279531 710.05847439 -4.13064492 708.66613898 -4.12840271 707.27380371 C-4.12963475 705.80192001 -4.13129061 704.33003662 -4.13333505 702.85815382 C-4.13762314 698.78753099 -4.1354654 694.71693294 -4.13215908 690.64631009 C-4.13007571 687.14636336 -4.13156162 683.64642182 -4.13307588 680.14647508 C-4.13721337 670.53670046 -4.13387036 660.92694062 -4.1271721 651.317168 C-4.12215214 644.11028463 -4.11909536 636.90340272 -4.117033 629.69651794 C-4.08657454 533.47470499 -3.66103208 437.25474469 -3.18311147 341.03428149 C-3.09542366 323.37199012 -3.01136155 305.70968458 -2.92993164 288.04736328 C-2.10515229 109.31812531 -2.10515229 109.31812531 -1.5255363 44.85647774 C-1.49648038 41.57491573 -1.46904611 38.29334368 -1.44200325 35.01176453 C-1.40139898 30.14063448 -1.35575805 25.26958251 -1.30515599 20.39854622 C-1.28803925 18.69382797 -1.27246484 16.98909339 -1.25859523 15.28434563 C-1.23986597 13.03653085 -1.21511352 10.78887034 -1.1884613 8.5411377 C-1.16995196 6.69767132 -1.16995196 6.69767132 -1.15106869 4.8169632 C-1 2 -1 2 0 0 Z " fill="#FEFDFE" transform="translate(1194,461)"/>
<path d="M0 0 C4.55361536 1.66336727 6.67081079 3.50122153 9.875 7.1875 C16.41618024 14.55256108 23.3955744 21.46426717 30.40130615 28.38217163 C40.60765738 38.46128078 40.60765738 38.46128078 44.59033203 43.37158203 C46.60728306 45.70152026 48.80703484 47.83791685 51 50 C52.35222605 51.34113126 53.7041676 52.68254938 55.0559082 54.02416992 C55.81631912 54.77812546 56.57673004 55.53208099 57.36018372 56.30888367 C60.78119569 59.70324569 64.19702368 63.10280355 67.61254883 66.50268555 C69.41970373 68.29970901 71.2286387 70.09494404 73.03930664 71.88842773 C75.65196447 74.47696217 78.25822989 77.07178235 80.86328125 79.66796875 C81.67879959 80.47316452 82.49431793 81.27836029 83.33454895 82.10795593 C84.07919907 82.85245499 84.82384918 83.59695404 85.59106445 84.36401367 C86.25104935 85.01955734 86.91103424 85.67510101 87.59101868 86.35050964 C89 88 89 88 89 90 C89.58910156 90.25136719 90.17820312 90.50273438 90.78515625 90.76171875 C93.27644202 92.15455401 94.62300414 93.6208572 96.4375 95.8125 C100.885922 101.14854216 105.86196967 105.84447506 111 110.5 C114.76536068 113.91176082 118.42249246 117.38879538 122 121 C122.96340839 121.94287511 123.92830252 122.88423406 124.89453125 123.82421875 C125.86721196 124.7786209 126.83986808 125.73304812 127.8125 126.6875 C128.31458984 127.17283203 128.81667969 127.65816406 129.33398438 128.15820312 C130.59417273 129.40124606 131.80191044 130.69699892 133 132 C133 132.66 133 133.32 133 134 C133.5775 134.2475 134.155 134.495 134.75 134.75 C137.32939979 136.18299988 139.06121592 137.78424676 141 140 C141 140.66 141 141.32 141 142 C141.8353125 142.32871094 141.8353125 142.32871094 142.6875 142.6640625 C145.75991385 144.43900429 147.65382731 146.71460775 150 149.375 C154.8393779 154.7949713 159.88386912 159.9361593 165.078125 165.015625 C167.23290948 167.16475694 169.2346093 169.4029464 171.21533203 171.71313477 C174.81007792 175.83729702 178.59401152 179.72225453 182.4765625 183.57421875 C183.18810486 184.28430084 183.89964722 184.99438293 184.63275146 185.72598267 C186.16426522 187.2537173 187.69693215 188.78029662 189.23065186 190.30581665 C191.66350535 192.72580168 194.09312949 195.14898843 196.52197266 197.57299805 C201.67850604 202.71815355 206.83895787 207.85936769 212 213 C217.98483003 218.96116247 223.96800595 224.92396572 229.94696045 230.89102173 C232.3305867 233.26820672 234.7172248 235.64233867 237.10400391 238.01635742 C238.57729769 239.48601575 240.05044962 240.95581632 241.5234375 242.42578125 C242.17922791 243.07640533 242.83501831 243.72702942 243.51068115 244.39736938 C247.34845917 248.23471255 250.9899744 252.18980937 254.52848911 256.30518532 C256.18815858 258.2167119 257.92679941 260.01358677 259.74609375 261.7734375 C260.35517578 262.37027344 260.96425781 262.96710938 261.59179688 263.58203125 C262.84804856 264.80239003 264.10592578 266.0210772 265.36523438 267.23828125 C265.96529297 267.82738281 266.56535156 268.41648437 267.18359375 269.0234375 C267.72556396 269.54856934 268.26753418 270.07370117 268.82592773 270.61474609 C270 272 270 272 270 274 C270.66 274 271.32 274 272 274 C273.31787109 275.33911133 273.31787109 275.33911133 274.8984375 277.26953125 C279.8214371 283.05807117 285.23412659 288.34177771 290.625 293.6875 C291.65909041 294.71655953 292.69294602 295.74585507 293.7265625 296.77539062 C295.62697857 298.66772395 297.528976 300.5584121 299.43212891 302.44799805 C301.95994055 304.96018811 304.48117126 307.47880641 307 310 C307.8971875 310.8971875 308.794375 311.794375 309.71875 312.71875 C312.47916667 315.47916667 315.23958333 318.23958333 318 321 C318.87011719 321.86882812 319.74023438 322.73765625 320.63671875 323.6328125 C322.00929726 325.00765974 323.37838846 326.38604126 324.73828125 327.7734375 C327.7051722 330.79186254 330.72921642 333.67585982 333.9375 336.4375 C339.35605076 341.12381417 344.42597458 346.09802361 349.0625 351.5625 C353.23693888 356.43107191 357.83050501 360.88246599 362.40649414 365.36938477 C365.44891239 368.37059824 368.38463088 371.39942661 371.15612793 374.65393066 C375.30481688 379.41995653 379.7404134 383.86584155 384.22070312 388.31835938 C385.59738082 389.69279557 386.97405838 391.06723189 388.3507309 392.44167328 C389.81599357 393.90358715 391.28249767 395.36424494 392.74937439 396.82453918 C395.82110493 399.88262865 398.88891148 402.94463495 401.95617676 406.00720215 C408.46781091 412.50778485 414.98367655 419.00411846 421.5 425.5 C428.53747028 432.51539351 435.57418394 439.53153629 442.60600805 446.55258989 C445.64841039 449.59004316 448.6932256 452.62504949 451.7399826 455.65813446 C453.18145315 457.09390824 454.62174755 458.53084977 456.0615387 459.9683075 C457.80740844 461.71133462 459.55505237 463.45258746 461.30491638 465.19160461 C464.80379977 468.69017259 468.22808716 472.20112098 471.45410156 475.95410156 C475.71009918 480.8966484 480.33200088 485.45595388 484.95507812 490.05273438 C485.94003836 491.03577098 486.92476788 492.01903881 487.9092865 493.0025177 C490.0150684 495.10515997 492.12238818 497.20624383 494.23094177 499.30610657 C497.57150453 502.633043 500.90815682 505.96388333 504.2442627 509.29528809 C511.32653746 516.36650541 518.41304165 523.43347716 525.5 530.5 C533.1533785 538.1313097 540.80600546 545.76336421 548.45374441 553.40032625 C551.76376073 556.70538913 555.07619256 560.00800527 558.39055634 563.30870819 C560.45854878 565.36919162 562.52442264 567.43178948 564.5897541 569.4949398 C565.9905324 570.89298237 567.39382918 572.28850014 568.79722595 573.68391418 C573.18861606 578.0749398 577.44550781 582.51552408 581.4725256 587.24457264 C584.24985397 590.43637618 587.25856905 593.40111178 590.25390625 596.38671875 C591.24982033 597.38406792 591.24982033 597.38406792 592.26585388 598.40156555 C593.65704703 599.7934336 595.04948124 601.18406222 596.44311523 602.57348633 C598.56414775 604.68914357 600.67976369 606.81011222 602.79492188 608.93164062 C604.15592936 610.29198754 605.51724689 611.65202434 606.87890625 613.01171875 C607.50406631 613.63890305 608.12922638 614.26608734 608.77333069 614.91227722 C609.37092697 615.50672134 609.96852325 616.10116547 610.58422852 616.71362305 C611.10050308 617.22910202 611.61677765 617.74458099 612.1486969 618.27568054 C614.0977517 620.20125802 614.0977517 620.20125802 617.16992188 621.97613525 C619.26937689 623.73196429 619.92742897 624.68200764 620.54296017 627.37914753 C620.74807574 630.49073967 620.75303632 633.55020861 620.69702148 636.66821289 C620.69950394 637.84935669 620.70198639 639.03050049 620.70454407 640.24743652 C620.70530447 643.48191893 620.67938613 646.71485243 620.64129519 649.94906926 C620.60739023 653.3453439 620.60690881 656.74162856 620.60255432 660.13804626 C620.59059759 665.84868902 620.55681191 671.55884898 620.50756836 677.26928711 C620.43847405 685.28621184 620.40884901 693.30291807 620.38716781 701.32009137 C620.3687741 707.57931086 620.33951581 713.83848791 620.30859375 720.09765625 C620.30542231 720.76194492 620.30225088 721.42623358 620.29898334 722.11065221 C620.27703516 726.54919184 620.24512736 730.98758282 620.20874023 735.42602539 C620.19999374 737.07473885 620.19999374 737.07473885 620.19107056 738.75675964 C620.12256556 745.87763948 619.68642338 752.91228013 619 760 C614.31117479 759.12421339 611.8411798 756.24812041 608.59838867 752.95483398 C607.96531296 752.32380264 607.33223724 751.6927713 606.67997742 751.0426178 C604.58530954 748.95096169 602.50159582 746.84874402 600.41796875 744.74609375 C598.96130275 743.28636874 597.50404403 741.82723498 596.04621887 740.3686676 C592.98772831 737.30557033 589.93421645 734.23762563 586.88452148 731.16577148 C582.99102468 727.24411745 579.08902218 723.33107301 575.18366528 719.42123318 C571.44611048 715.67849616 567.71324522 711.93109524 563.98046875 708.18359375 C563.27437155 707.47561583 562.56827435 706.7676379 561.84078026 706.0382061 C559.82119186 704.0116722 557.80500625 701.98181323 555.78979492 699.95092773 C555.20409729 699.36411224 554.61839966 698.77729675 554.01495361 698.17269897 C550.37173263 694.49227448 546.91899846 690.68652781 543.54047775 686.76154995 C541.51425929 684.44455119 539.36199525 682.28255494 537.16015625 680.1328125 C536.32548828 679.31039062 535.49082031 678.48796875 534.63085938 677.640625 C532.89294725 675.93839624 531.15331366 674.23792357 529.41210938 672.5390625 C528.58646484 671.724375 527.76082031 670.9096875 526.91015625 670.0703125 C526.15871338 669.33570801 525.40727051 668.60110352 524.63305664 667.84423828 C523 666 523 666 523 664 C522.34 664 521.68 664 521 664 C519.44921875 662.390625 519.44921875 662.390625 517.6875 660.25 C515.00366074 657.08730145 512.31695637 654.51012914 509 652 C506.6875 649.875 506.6875 649.875 505 648 C505 647.34 505 646.68 505 646 C504.34 646 503.68 646 503 646 C501.52126503 644.50126076 501.52126503 644.50126076 499.81558228 642.44668579 C496.36307985 638.38943125 492.73197486 634.6024074 488.95068359 630.85302734 C488.2846965 630.18850052 487.61870941 629.52397369 486.93254089 628.83930969 C485.50088089 627.41142555 484.06806794 625.9846966 482.63419724 624.55903244 C480.36151362 622.29922278 478.09206532 620.0362074 475.82339478 617.77236938 C471.01007535 612.97042072 466.19282823 608.17242438 461.375 603.375 C455.78162368 597.80527432 450.18989648 592.23391352 444.60237503 586.65831375 C442.37265552 584.43504922 440.1399331 582.21483115 437.90707397 579.99472046 C436.53474327 578.6260237 435.16255357 577.25718556 433.79052734 575.88818359 C433.17430008 575.27712265 432.55807281 574.66606171 431.923172 574.03648376 C428.39363467 570.50737741 425.15642529 566.86604131 422 563 C420.35663998 561.31034815 418.68549724 559.6476209 417 558 C415.50902648 556.51180815 414.01960885 555.02205681 412.53125 553.53125 C411.71269531 552.71269531 410.89414063 551.89414063 410.05078125 551.05078125 C398 539 398 539 395.73324585 536.73225403 C392.8363233 533.8363827 389.93632013 530.94362445 387.03564453 528.05151367 C381.18255592 522.2147845 375.33202871 516.3754948 369.48294258 510.53475475 C365.95268183 507.00971226 362.42149148 503.48561146 358.88818359 499.96362305 C355.45669189 496.54304942 352.02769651 493.11999109 348.6003685 489.69524574 C347.3008156 488.39752835 346.00038876 487.10068548 344.69903946 485.80476952 C332.65593425 473.80997331 332.65593425 473.80997331 327.34280396 467.56864929 C325.57877877 465.50793384 323.69881477 463.58549525 321.7734375 461.67578125 C321.0515625 460.95712891 320.3296875 460.23847656 319.5859375 459.49804688 C318.85632813 458.77681641 318.12671875 458.05558594 317.375 457.3125 C316.26898437 456.21325195 316.26898437 456.21325195 315.140625 455.09179688 C313.72137552 453.6814495 312.30117616 452.27205715 310.87988281 450.86376953 C308.57939892 448.58300407 306.28860629 446.29267854 304 444 C303.3915625 443.3915625 302.783125 442.783125 302.15625 442.15625 C300.99934878 440.99934878 299.84315524 439.84173962 298.6875 438.68359375 C297.30108643 437.30038947 295.90222676 435.92967109 294.5 434.5625 C292.45958049 432.47107 290.57769364 430.34800426 288.6875 428.125 C285.69618606 424.66446034 282.49850919 421.66991536 278.9921875 418.73828125 C274.81802484 415.09611971 271.07665887 411.02989326 267.32165527 406.96594238 C257.02250666 395.83679488 246.25960465 385.18104008 235.5 374.5 C231.77811133 370.8052295 228.06003065 367.10666138 224.34375 363.40625 C223.50823608 362.57903442 222.67272217 361.75181885 221.81188965 360.89953613 C221.01996216 360.11091187 220.22803467 359.3222876 219.41210938 358.50976562 C218.72677124 357.82966431 218.04143311 357.14956299 217.33532715 356.44885254 C215.41927263 354.43965439 213.60470249 352.39764631 211.7947998 350.2947998 C207.69211376 345.57740624 203.30410785 341.17866096 198.87109375 336.7734375 C197.98398712 335.88779114 197.09688049 335.00214478 196.18289185 334.08966064 C194.26830796 332.178864 192.35285475 330.26899097 190.43582153 328.36065674 C187.39769493 325.33617324 184.36349417 322.30777113 181.32983398 319.27880859 C174.88952994 312.84955517 168.44499412 306.42455133 162 300 C155.0395182 293.06159606 148.07979372 286.12244224 141.12495899 279.17837715 C138.11600842 276.17437505 135.10464534 273.17281991 132.09133911 270.17318726 C129.76852368 267.85965429 127.44899361 265.54283077 125.12890625 263.2265625 C124.30480255 262.40762512 123.48069885 261.58868774 122.63162231 260.74493408 C118.44218386 256.5558774 114.40408768 252.29632208 110.5479126 247.79756165 C107.83731704 244.64979825 105.01036667 241.60935143 102.1875 238.5625 C101.32995117 237.62760742 101.32995117 237.62760742 100.45507812 236.67382812 C99.90658203 236.08150391 99.35808594 235.48917969 98.79296875 234.87890625 C98.3033667 234.3485376 97.81376465 233.81816895 97.30932617 233.27172852 C96.00476246 231.87639105 96.00476246 231.87639105 94 231 C94.00092179 232.06984036 94.00184359 233.13968073 94.00279331 234.2419405 C94.02532692 260.68080911 94.04157988 287.11967644 94.05181217 313.55855274 C94.05689614 326.34592349 94.06381805 339.13328769 94.07543945 351.9206543 C94.16232314 450.07525011 94.16232314 450.07525011 93.73226738 491.66422081 C93.69878235 494.90768447 93.67162574 498.15109702 93.65028572 501.39466286 C93.62541745 505.07727856 93.58620967 508.75943382 93.53441548 512.44176698 C93.51027527 514.38724985 93.50028138 516.33289225 93.49074364 518.27850151 C93.47115404 519.41291239 93.45156445 520.54732327 93.43138123 521.71611023 C93.42046668 522.69660686 93.40955214 523.67710348 93.39830685 524.68731213 C93.26686559 525.45049912 93.13542433 526.21368612 93 527 C87.86463461 530.42357693 82.69697872 530.1596591 76.67724609 530.19287109 C75.85228134 530.20104858 75.02731659 530.20922607 74.17735291 530.21765137 C71.45938836 530.24237894 68.74147527 530.25898141 66.0234375 530.2734375 C64.62928053 530.28142302 64.62928053 530.28142302 63.20695877 530.28956985 C58.29520748 530.31623575 53.38348114 530.33563871 48.47167969 530.35009766 C44.40341933 530.36348036 40.3356554 530.39142127 36.26757812 530.43212891 C31.35344952 530.48129687 26.4397738 530.50619753 21.5254097 530.51332474 C19.65222853 530.52005532 17.77905819 530.53532405 15.9060173 530.55921555 C13.29145621 530.59068552 10.67866401 530.59093291 8.06396484 530.58349609 C7.28779312 530.59990143 6.5116214 530.61630676 5.71192932 530.63320923 C2.31665336 530.59354698 0.48332826 530.47658115 -1.98171997 528.04594421 C-3.38280649 523.85492479 -3.40252859 520.07406607 -3.35644531 515.68139648 C-3.35846419 514.73962461 -3.36048307 513.79785273 -3.36256313 512.8275423 C-3.36552761 509.67520349 -3.34688187 506.52337264 -3.328125 503.37109375 C-3.32543351 501.12331248 -3.32398244 498.87552944 -3.32368469 496.62774658 C-3.31873758 490.51586518 -3.29436347 484.40419761 -3.26610184 478.2923851 C-3.24440426 473.09784419 -3.23376935 467.90330301 -3.22300434 462.70872974 C-3.14410582 425.48469652 -2.85356371 388.26241275 -2.46146202 351.04043865 C-2.00423685 307.58945972 -1.75153901 264.13821751 -1.5152998 220.68557358 C-1.42941682 204.90886508 -1.34224677 189.13216368 -1.25390625 173.35546875 C-1.24625968 171.98759633 -1.24625968 171.98759633 -1.23845863 170.59209013 C-1.02125263 131.79016615 -0.74449098 92.98880907 -0.4375 54.1875 C-0.43190945 53.47987361 -0.42631889 52.77224722 -0.42055893 52.0431776 C-0.28349866 34.69542615 -0.14368266 17.34769794 0 0 Z " fill="#FEFEFE" transform="translate(664,705)"/>
<path d="M0 0 C2.88185678 0.00464561 5.76365072 0.00447258 8.64550781 0 C56.32444739 -0.07391767 56.32444739 -0.07391767 74.19580078 3.63037109 C74.83318176 3.75875366 75.47056274 3.88713623 76.1272583 4.01940918 C109.62547888 10.79271635 140.74731477 22.80567335 171.25830078 38.13037109 C172.01353027 38.50935547 172.76875977 38.88833984 173.546875 39.27880859 C209.0625789 57.26914849 242.17235331 83.29322238 266.25830078 115.13037109 C267.16902344 116.31373047 267.16902344 116.31373047 268.09814453 117.52099609 C299.10752506 158.8668368 316.60501388 209.1750594 316.38330078 260.88037109 C316.38075287 261.59090637 316.37820496 262.30144165 316.37557983 263.0335083 C316.35581618 267.73276263 316.31261313 272.43139414 316.25830078 277.13037109 C316.2510498 277.99307617 316.24379883 278.85578125 316.23632812 279.74462891 C315.42453226 339.2671532 285.13180786 400.09387241 252.50830078 448.19287109 C251.97736816 448.97863525 251.44643555 449.76439941 250.89941406 450.57397461 C247.99856499 454.80381311 244.95685064 458.76168103 241.56640625 462.60961914 C239.43238645 465.0905466 237.65961843 467.80897242 235.84814453 470.52880859 C233.66383612 472.72921756 232.35233425 473.09375531 229.25830078 473.13037109 C226.71533203 471.57568359 226.71533203 471.57568359 224.07080078 469.25537109 C223.10787109 468.42263672 222.14494141 467.58990234 221.15283203 466.73193359 C220.19763672 465.87341797 219.24244141 465.01490234 218.25830078 464.13037109 C217.41654297 463.37498047 216.57478516 462.61958984 215.70751953 461.84130859 C214.05846167 460.35268539 212.41268378 458.86042155 210.77001953 457.36474609 C208.25678846 455.12902577 205.68518599 452.99659428 203.07080078 450.88037109 C193.2222546 442.90109572 183.64563853 434.54566506 174.29345703 425.98974609 C173.04984497 424.85354775 171.79020497 423.73420983 170.50439453 422.64599609 C169.07080078 421.38037109 169.07080078 421.38037109 167.25830078 419.13037109 C167.48135384 414.52317178 169.45927648 412.49690174 172.63330078 409.31787109 C178.52678448 403.06287556 183.24380123 396.26060483 187.96191406 389.09423828 C189.14881051 387.29623544 190.35455953 385.51283004 191.56689453 383.73193359 C214.2535803 349.68168508 233.11581102 302.29877288 226.87158203 260.54443359 C226.56513488 259.18625981 226.22764436 257.83433601 225.84594727 256.49536133 C225.15618354 253.71939904 224.7642951 250.95924205 224.36767578 248.12646484 C220.11386543 220.00732517 209.21335876 193.93438892 192.25830078 171.13037109 C191.55060547 170.17388672 190.84291016 169.21740234 190.11376953 168.23193359 C184.9097901 161.5123349 179.10296727 155.29223556 173.25830078 149.13037109 C172.78376465 148.62715332 172.30922852 148.12393555 171.8203125 147.60546875 C147.35490675 121.83015649 107.46205347 94.01269247 70.95851707 92.00380802 C70.16189974 92.00320094 69.3652824 92.00259386 68.54452515 92.00196838 C67.61381573 91.99906107 66.68310631 91.99615376 65.72419357 91.99315834 C64.70339329 91.99533552 63.682593 91.9975127 62.63085938 91.99975586 C61.52959339 91.99855932 60.42832741 91.99736279 59.29368973 91.99612999 C55.53967827 91.99453129 51.78574136 92.00145357 48.03173828 92.00927734 C46.68763623 92.01079126 45.34353398 92.01214245 43.99943161 92.01333809 C3.84977415 92.0536794 -36.29824264 92.53198768 -76.44514394 92.96459258 C-83.97577605 93.04552868 -91.50643269 93.12376886 -99.03710938 93.20043945 C-158.19267728 93.79182303 -158.19267728 93.79182303 -217.34301949 94.75425148 C-237.5080515 95.14678882 -257.66703074 95.28756895 -277.83569336 95.26074219 C-282.33127151 95.25480589 -286.82679306 95.25850622 -291.32236958 95.26431465 C-294.86781763 95.26790355 -298.41325174 95.26679346 -301.95870018 95.26418686 C-303.62249954 95.2635248 -305.2863002 95.26432049 -306.95009804 95.26666641 C-309.22091823 95.26918973 -311.49163853 95.26536792 -313.76245117 95.25976562 C-315.04360306 95.25897003 -316.32475494 95.25817444 -317.64472961 95.25735474 C-320.74169922 95.13037109 -320.74169922 95.13037109 -323.74169922 94.13037109 C-324.92020655 90.59484911 -324.86880158 87.79628686 -324.87109375 84.0637207 C-324.87284607 83.34782776 -324.87459839 82.63193481 -324.87640381 81.89434814 C-324.88080981 79.52377914 -324.87788655 77.15328464 -324.87451172 74.78271484 C-324.87518564 73.12944016 -324.8761564 71.47616558 -324.87741089 69.82289124 C-324.87888659 66.35188863 -324.8767393 62.88091173 -324.87207031 59.40991211 C-324.86640427 54.98412214 -324.86963288 50.55839323 -324.87564278 46.13260555 C-324.87927852 42.71372529 -324.8780955 39.29485919 -324.87551498 35.87597847 C-324.8748524 34.2458756 -324.87565051 32.61577141 -324.87799454 30.98567009 C-324.90023177 11.15455068 -324.90023177 11.15455068 -323.74169922 6.13037109 C-320.87270726 3.26137914 -317.91586145 3.6815342 -314.05419922 3.53662109 C-312.79784668 3.4810907 -312.79784668 3.4810907 -311.51611328 3.42443848 C-299.0438751 2.921436 -286.55938921 2.80369913 -274.07894897 2.65805054 C-271.70618028 2.62995045 -269.33343696 2.60020862 -266.96069336 2.57006836 C-241.62145742 2.25066196 -216.28142453 2.06086584 -190.94080353 1.89609718 C-188.5183762 1.88034135 -186.09594953 1.86448701 -183.67352295 1.84861755 C-168.18547773 1.7473492 -152.69742411 1.64865421 -137.20928574 1.56267774 C-128.68882162 1.51530006 -120.16837746 1.46506868 -111.64794922 1.41162109 C-110.89906433 1.40694808 -110.15017944 1.40227508 -109.37860107 1.39746046 C-88.5856391 1.2661646 -67.80254433 0.98208116 -47.01501465 0.47183228 C-31.34230488 0.09068696 -15.67699214 -0.0254699 0 0 Z " fill="#FEFEFE" transform="translate(810.74169921875,460.86962890625)"/>
<path d="M0 0 C0.33 0 0.66 0 1 0 C1.03149712 30.83332797 1.05126703 61.66665807 1.0625 92.5 C1.0629343 93.65738426 1.06336861 94.81476852 1.06381607 96.00722504 C1.09021298 168.3396479 0.92846699 240.66881497 0.5 313 C0.49402628 314.01092335 0.48805257 315.02184669 0.48189783 316.06340408 C0.3321137 341.37567434 0.17242914 366.6878738 0 392 C-0.33 392 -0.66 392 -1 392 C-2.2541201 383.27247096 -2.14091101 374.56678936 -2.12939453 365.7722168 C-2.13075133 364.0299628 -2.13253282 362.2877091 -2.13470459 360.54545593 C-2.13924953 355.82991317 -2.13750047 351.11439238 -2.1343255 346.39884925 C-2.13178227 341.44076973 -2.13414531 336.48269202 -2.13571167 331.52461243 C-2.13752951 323.1881985 -2.1351391 314.85179344 -2.13037109 306.51538086 C-2.12494887 296.92541115 -2.12667779 287.33546277 -2.1321975 277.74549359 C-2.13676318 269.47755016 -2.13736181 261.20961309 -2.13475883 252.94166881 C-2.13321241 248.01936896 -2.13295641 243.09707907 -2.13629532 238.17477989 C-2.13922382 233.53310102 -2.13710878 228.89144905 -2.13140106 224.24977303 C-2.13009892 222.56336893 -2.13042311 220.8769625 -2.13266373 219.19055939 C-2.14421052 209.60155862 -1.89237114 200.07078575 -1.36553115 190.49607891 C-0.89421047 181.64069023 -0.82536524 172.79678097 -0.79467773 163.93066406 C-0.7850617 162.12477921 -0.77504969 160.31889643 -0.76467896 158.51301575 C-0.73802631 153.68172306 -0.71680643 148.850421 -0.69667697 144.01909733 C-0.67456796 138.94360278 -0.64730308 133.86813577 -0.62062073 128.79266357 C-0.57102621 119.21332566 -0.52596638 109.63397219 -0.48259836 100.05460429 C-0.43293887 89.13534572 -0.37812874 78.21611481 -0.32291877 67.29688311 C-0.20961011 44.86461464 -0.10266303 22.43231954 0 0 Z " fill="#3F2E61" transform="translate(1190,789)"/>
<path d="M0 0 C0.33 0 0.66 0 1 0 C1 62.37 1 124.74 1 189 C0.34 189 -0.32 189 -1 189 C-1 249.39 -1 309.78 -1 372 C-1.33 372 -1.66 372 -2 372 C-2.02343898 348.09402842 -2.04103293 324.18805858 -2.05181217 300.28207779 C-2.05695187 289.18023543 -2.06394987 278.07840025 -2.07543945 266.9765625 C-2.08545776 257.2916748 -2.09187032 247.6067923 -2.09408849 237.92189956 C-2.09538355 232.80160741 -2.09839207 227.68133013 -2.10573006 222.56104279 C-2.11260348 217.72496379 -2.11459436 212.88890553 -2.11310768 208.05282211 C-2.11337899 206.29385896 -2.11531608 204.534895 -2.11920547 202.77593613 C-2.13984658 192.944685 -1.90730052 183.17241398 -1.36634171 173.3556447 C-0.9206153 165.06597619 -0.82649442 156.7912204 -0.79467773 148.49121094 C-0.785057 146.85281145 -0.77504479 145.21441423 -0.76467896 143.57601929 C-0.73807688 139.20132486 -0.71683084 134.82662014 -0.69667697 130.4518919 C-0.67453537 125.85285851 -0.64728698 121.25385517 -0.62062073 116.65484619 C-0.57106896 107.97861685 -0.52599393 99.30237049 -0.48259836 90.62610841 C-0.43290147 80.73463998 -0.37810565 70.84320176 -0.32291877 60.95176268 C-0.20967605 40.63453669 -0.10271554 20.31728176 0 0 Z " fill="#1A1524" transform="translate(1191,600)"/>
<path d="M0 0 C0.33 0 0.66 0 1 0 C0.99907821 1.08429511 0.99815641 2.16859022 0.99720669 3.28574276 C0.97500114 29.6764242 0.95857137 56.06710443 0.94818783 82.45779324 C0.94303288 95.22015655 0.93600542 107.98251369 0.92456055 120.74487305 C0.91458926 131.86932109 0.90814074 142.99376466 0.90591151 154.11821705 C0.90460856 160.00778161 0.90154898 165.89733338 0.89426994 171.78689384 C0.88747118 177.33290893 0.8853909 182.87890599 0.88689232 188.42492485 C0.88661773 190.45780536 0.88463552 192.49068649 0.88079453 194.52356339 C0.87579702 197.30552071 0.87702397 200.08741052 0.87974548 202.86936951 C0.87683264 203.66803497 0.8739198 204.46670044 0.87091869 205.28956789 C0.88314496 209.93432883 1.19685086 214.45102059 1.7854777 219.05927998 C2 221 2 221 2 224 C1.01 223.67 0.02 223.34 -1 223 C-1.02337703 195.54861252 -1.04100278 168.09722654 -1.05181217 140.64583111 C-1.05696492 127.8992193 -1.06398816 115.15261369 -1.07543945 102.40600586 C-1.08541749 91.29399051 -1.09186086 80.18197964 -1.09408849 69.06995994 C-1.0953903 63.1881564 -1.0984426 57.30636569 -1.10573006 51.42456627 C-1.11253949 45.88346959 -1.11460696 40.34239098 -1.11310768 34.80129051 C-1.1133818 32.7724752 -1.11535762 30.74365925 -1.11920547 28.71484756 C-1.15470718 9.02314097 -1.15470718 9.02314097 0 0 Z " fill="#050013" transform="translate(1188,960)"/>
<path d="M0 0 C4.2742558 1.5830577 6.26531794 4.50568404 9 8 C8.34 8.66 7.68 9.32 7 10 C6.01524786 8.90081184 5.03739527 7.7954398 4.0625 6.6875 C3.51722656 6.07261719 2.97195313 5.45773437 2.41015625 4.82421875 C1 3 1 3 0 0 Z " fill="#151517" transform="translate(1251,1296)"/>
<path d="M0 0 C0.66 0.33 1.32 0.66 2 1 C1.06409496 2.1055189 0.12620142 3.20935453 -0.8125 4.3125 C-1.33457031 4.92738281 -1.85664062 5.54226563 -2.39453125 6.17578125 C-5.3373102 9.51952278 -5.3373102 9.51952278 -7 11 C-7.66 11 -8.32 11 -9 11 C-8.46324097 7.14896699 -6.88399077 5.68202413 -3.9375 3.25 C-3.20402344 2.63640625 -2.47054688 2.0228125 -1.71484375 1.390625 C-1.14894531 0.93171875 -0.58304688 0.4728125 0 0 Z " fill="#242325" transform="translate(1339,870)"/>
<path d="M0 0 C1.99570837 2.99356256 2.31645208 4.07168976 2.625 7.5 C2.69976563 8.2734375 2.77453125 9.046875 2.8515625 9.84375 C2.96965178 11.55915219 3 13.28053795 3 15 C2.01 14.67 1.02 14.34 0 14 C0 9.38 0 4.76 0 0 Z " fill="#0A0A1B" transform="translate(1187,1169)"/>
</svg>
